<?xml version="1.0" encoding="utf-8"?>
<!-- Generator: Adobe Illustrator 16.0.0, SVG Export Plug-In . SVG Version: 6.00 Build 0)  -->
<!DOCTYPE svg PUBLIC "-//W3C//DTD SVG 1.1//EN" "http://www.w3.org/Graphics/SVG/1.1/DTD/svg11.dtd">
<svg version="1.1" id="Layer_1" xmlns="http://www.w3.org/2000/svg" xmlns:xlink="http://www.w3.org/1999/xlink" x="0px" y="0px"
	 width="320px" height="207.146px" viewBox="0 0 320 207.146" enable-background="new 0 0 320 207.146" xml:space="preserve">
<g>
	<path id="x-mark-4-icon_60_" fill="#002035" d="M149.109,139.639c-6.849,6.848-17.951,6.849-24.801,0
		c-6.849-6.85-6.848-17.952,0-24.801c6.849-6.848,17.951-6.848,24.801,0C155.958,121.688,155.957,132.79,149.109,139.639z
		 M146.701,137.23c5.522-5.523,5.522-14.461,0-19.984c-5.523-5.522-14.461-5.522-19.984,0c-5.522,5.523-5.522,14.461,0,19.984
		C132.24,142.753,141.177,142.753,146.701,137.23z M134.472,137.82l-0.001-8.104l-8.106,0.001l0.002-4.355l8.104-0.001v-8.104
		l4.355,0.001v8.104l8.103-0.001l0.002,4.356h-8.104v8.104H134.472z"/>
</g>
<path id="home-icon_14_" fill="#FFFFFF" d="M36.671,23.999l13.862,12.01v12.687H40.464v-7.319h-7.585v7.319H22.81V36.104
	L36.671,23.999z M36.668,20.731l15.378,13.524l2.703-2.704L36.675,15.329L18.396,31.67l2.697,2.71L36.668,20.731z"/>
<path id="warning-4-icon_17_" fill="#FFFFFF" d="M214.918,21.584h4.846v14.692h-4.846V21.584L214.918,21.584z M217.342,43.677
	c-1.445,0-2.615-1.17-2.615-2.613c0-1.444,1.17-2.614,2.615-2.614c1.443,0,2.613,1.17,2.613,2.614
	C219.955,42.507,218.785,43.677,217.342,43.677z M217.342,17.63c8.094,0,14.646,6.552,14.646,14.648
	c0,8.095-6.551,14.646-14.646,14.646s-14.648-6.551-14.648-14.646S209.244,17.63,217.342,17.63z M217.342,14.101
	c-10.039,0-18.178,8.139-18.178,18.178s8.139,18.177,18.178,18.177s18.176-8.138,18.176-18.177S227.381,14.101,217.342,14.101z"/>
<g>
	<path fill="#FFFFFF" d="M109.305,19.936c0,0.886-0.718,1.604-1.604,1.604s-1.604-0.718-1.604-1.604V15.9
		c0-0.885,0.718-1.603,1.604-1.603s1.604,0.718,1.604,1.603V19.936z"/>
	<path fill="#FFFFFF" d="M87.642,15.894c0-0.886-0.718-1.604-1.603-1.604c-0.886,0-1.604,0.718-1.604,1.604v4.035
		c0,0.885,0.718,1.604,1.604,1.604c0.885,0,1.603-0.719,1.603-1.604V15.894z"/>
	<g>
		<path fill="#FFFFFF" d="M88.677,33.933c-0.343-0.076-0.515-0.285-0.495-0.627c0.113-1.369,0.837-3.918,4.755-3.918
			c3.061,0,4.525,1.959,4.431,4.165c-0.075,1.502-0.779,2.396-1.351,2.738c-0.133,0.058-0.133,0.133,0,0.191
			c0.571,0.342,1.275,1.235,1.351,2.738c0.095,2.205-1.37,4.164-4.431,4.164c-3.918,0-4.642-2.549-4.755-3.918
			c-0.02-0.342,0.152-0.551,0.495-0.627l2.168-0.475c0.38-0.077,0.57,0.094,0.627,0.475c0.133,0.779,0.57,1.274,1.465,1.274
			c0.76,0,1.35-0.742,0.95-1.522c-0.285-0.532-0.95-0.874-1.863-0.988c-0.381-0.038-0.571-0.209-0.571-0.57v-1.294
			c0-0.361,0.19-0.532,0.571-0.57c0.913-0.114,1.578-0.456,1.863-0.989c0.418-0.779-0.19-1.521-0.95-1.521
			c-0.895,0-1.332,0.494-1.465,1.273c-0.057,0.382-0.247,0.552-0.627,0.476L88.677,33.933z"/>
		<path fill="#FFFFFF" d="M103.626,29.729c0.38,0,0.57,0.19,0.57,0.571v12.171c0,0.362-0.19,0.571-0.57,0.571h-2.111
			c-0.361,0-0.57-0.209-0.57-0.571v-8.367c0-0.381-0.19-0.57-0.571-0.57h-0.817c-0.361,0-0.57-0.209-0.57-0.57v-1.027
			c0-0.323,0.114-0.533,0.381-0.686l2.435-1.464c0.075-0.038,0.151-0.058,0.246-0.058H103.626z"/>
	</g>
	<path fill="#FFFFFF" d="M111.243,18.234v1.643c0,1.953-1.589,3.541-3.541,3.541c-1.953,0-3.541-1.588-3.541-3.541v-1.643h-14.58
		v1.635c0,1.953-1.589,3.542-3.541,3.542c-1.953,0-3.542-1.589-3.542-3.542v-1.635h-3.846v31.677h36.354V18.234H111.243z
		 M111.476,46.382H82.181v-19.63h29.295V46.382z"/>
</g>
<g>
	<g>
		<path fill="#FFFFFF" d="M153.602,42.762c-0.409,0-0.595-0.261-0.409-0.651l3.984-8.955c0.056-0.13,0.018-0.223-0.131-0.223h-4.58
			c-0.354,0-0.559-0.205-0.559-0.56v-2.085c0-0.372,0.205-0.559,0.559-0.559h9.346c0.447,0,0.539,0.279,0.371,0.67l-5.342,11.935
			c-0.13,0.298-0.335,0.428-0.651,0.428H153.602z"/>
	</g>
	<path fill="#FFFFFF" d="M169.561,19.936c0,0.886-0.717,1.604-1.604,1.604c-0.885,0-1.604-0.718-1.604-1.604V15.9
		c0-0.885,0.719-1.603,1.604-1.603c0.887,0,1.604,0.718,1.604,1.603V19.936z"/>
	<path fill="#FFFFFF" d="M147.898,15.894c0-0.886-0.718-1.604-1.603-1.604c-0.886,0-1.604,0.718-1.604,1.604v4.035
		c0,0.885,0.718,1.604,1.604,1.604c0.885,0,1.603-0.719,1.603-1.604V15.894z"/>
	<path fill="#FFFFFF" d="M171.498,18.234v1.643c0,1.953-1.588,3.541-3.541,3.541s-3.541-1.588-3.541-3.541v-1.643h-14.58v1.635
		c0,1.953-1.589,3.542-3.541,3.542c-1.953,0-3.542-1.589-3.542-3.542v-1.635h-3.846v31.677h36.354V18.234H171.498z M171.732,46.382
		h-29.295v-19.63h29.295V46.382z"/>
</g>
<path id="gear-icon_13_" fill="#FFFFFF" d="M296.604,35.777v-5.12l-2.766-0.983c-1.055-0.375-1.902-1.181-2.332-2.215v-0.001
	c-0.43-1.036-0.4-2.207,0.08-3.221l1.26-2.65l-3.619-3.619l-2.65,1.26c-1.012,0.48-2.184,0.511-3.221,0.081l0,0
	c-1.035-0.43-1.84-1.276-2.215-2.333l-0.984-2.766h-5.119l-0.984,2.766c-0.375,1.056-1.18,1.903-2.215,2.333l0,0
	c-1.037,0.43-2.207,0.399-3.221-0.082l-2.65-1.26l-3.619,3.62l1.258,2.65c0.482,1.013,0.512,2.185,0.082,3.221
	c0,0.001,0,0.001,0,0.001c-0.428,1.035-1.275,1.84-2.332,2.215l-2.766,0.983v5.12l2.766,0.983c1.055,0.375,1.904,1.181,2.332,2.214
	c0,0,0,0.001,0,0.002c0.43,1.036,0.4,2.207-0.082,3.221l-1.26,2.65l3.621,3.619l2.65-1.26c1.012-0.48,2.186-0.511,3.221-0.081
	c0,0,0,0,0.002,0c1.033,0.429,1.838,1.276,2.213,2.332l0.984,2.767h5.119l0.979-2.748c0.377-1.065,1.189-1.922,2.234-2.355V47.12
	c1.027-0.427,2.188-0.397,3.191,0.079l2.666,1.268l3.619-3.619l-1.26-2.652c-0.48-1.012-0.51-2.183-0.082-3.218l0.002-0.001
	c0.43-1.035,1.277-1.841,2.334-2.217L296.604,35.777z M277.598,40.188c-3.852,0-6.971-3.121-6.971-6.971s3.119-6.97,6.971-6.97
	c3.85,0,6.969,3.12,6.969,6.97S281.447,40.188,277.598,40.188z"/>
<g>
	<path id="x-mark-4-icon_59_" fill="#002035" d="M199.917,83.855c0,9.685-7.85,17.536-17.535,17.536s-17.537-7.852-17.537-17.536
		s7.852-17.536,17.537-17.536S199.917,74.171,199.917,83.855z M196.513,83.855c0-7.811-6.32-14.131-14.131-14.131
		s-14.131,6.32-14.131,14.131s6.32,14.131,14.131,14.131S196.513,91.666,196.513,83.855z M188.282,92.92l-5.73-5.73l-5.732,5.732
		l-3.078-3.081l5.73-5.731l-5.73-5.73l3.08-3.079l5.73,5.729l5.729-5.729l3.082,3.079l-5.73,5.73l5.73,5.73L188.282,92.92z"/>
</g>
<g>
	<g>
		<path id="check-mark-4-icon_23_" fill="#002035" d="M247.59,84.051c0,9.577-7.764,17.341-17.341,17.341
			s-17.341-7.764-17.341-17.341s7.764-17.341,17.341-17.341S247.59,74.474,247.59,84.051z M244.223,84.051
			c0-7.724-6.251-13.974-13.974-13.974c-7.724,0-13.974,6.251-13.974,13.974c0,7.724,6.251,13.974,13.974,13.974
			C237.973,98.024,244.223,91.773,244.223,84.051z M237.17,76.612l-9.773,9.774l-4.234-4.234l-3.14,3.14l7.374,7.375l12.915-12.916
			L237.17,76.612z"/>
	</g>
</g>
<g>
	<g>
		<path id="check-mark-4-icon_24_" fill="#004B67" d="M250.393,127.043c0,9.577-7.764,17.341-17.342,17.341
			c-9.576,0-17.34-7.764-17.34-17.341s7.764-17.341,17.34-17.341C242.629,109.702,250.393,117.466,250.393,127.043z
			 M247.025,127.043c0-7.724-6.252-13.974-13.975-13.974s-13.973,6.251-13.973,13.974c0,7.724,6.25,13.974,13.973,13.974
			C240.775,141.017,247.025,134.766,247.025,127.043z M239.973,119.604l-9.773,9.774l-4.234-4.234l-3.141,3.14l7.375,7.375
			l12.914-12.916L239.973,119.604z"/>
	</g>
</g>
<g>
	<g>
		<path id="x-mark-4-icon_58_" fill="#C70151" d="M298.759,127.238c0,9.685-7.851,17.536-17.536,17.536s-17.536-7.852-17.536-17.536
			s7.851-17.536,17.536-17.536S298.759,117.554,298.759,127.238z M295.354,127.238c0-7.811-6.32-14.131-14.131-14.131
			s-14.131,6.32-14.131,14.131s6.32,14.131,14.131,14.131S295.354,135.049,295.354,127.238z M287.124,136.303l-5.731-5.73
			l-5.731,5.732l-3.078-3.081l5.729-5.731l-5.73-5.73l3.08-3.079l5.73,5.729l5.729-5.729l3.082,3.079l-5.73,5.73l5.73,5.73
			L287.124,136.303z"/>
	</g>
</g>
<g>
	<circle fill="#FFFFFF" cx="63.018" cy="154.772" r="35.672"/>
	<g>
		<path id="check-mark-4-icon_22_" fill="#002035" d="M106.584,154.772c0,23.221-18.824,42.044-42.044,42.044
			c-23.22,0-42.044-18.823-42.044-42.044s18.824-42.043,42.044-42.043C87.76,112.729,106.584,131.552,106.584,154.772z
			 M98.42,154.772c0-18.727-15.156-33.88-33.88-33.88c-18.725,0-33.88,15.155-33.88,33.88c0,18.727,15.156,33.88,33.88,33.88
			C83.267,188.652,98.42,173.496,98.42,154.772z M81.321,136.737l-23.697,23.699L47.357,150.17l-7.612,7.612l17.878,17.881
			l31.313-31.315L81.321,136.737z"/>
	</g>
</g>
<path id="edit-10-icon_7_" fill="#002035" d="M278.116,69.556c7.852,0,14.206,6.354,14.206,14.206
	c0,7.852-6.354,14.207-14.206,14.207c-7.851,0-14.207-6.354-14.207-14.207C263.909,75.911,270.264,69.556,278.116,69.556
	 M278.116,66.133c-9.736,0-17.629,7.893-17.629,17.629s7.893,17.63,17.629,17.63s17.63-7.894,17.63-17.63
	S287.853,66.133,278.116,66.133L278.116,66.133z M271.72,85.461l4.865,4.864l-6.439,1.457L271.72,85.461z M287.856,79.214
	l-9.625,9.619l-5.014-5.013l9.626-9.619L287.856,79.214z"/>
<g>
	<circle fill="#E6E6E6" cx="86.645" cy="83.856" r="15.087"/>
	<g>
		<path id="x-mark-4-icon_57_" fill="#002035" d="M104.181,83.855c0,9.685-7.851,17.536-17.536,17.536S69.109,93.54,69.109,83.855
			s7.851-17.536,17.536-17.536S104.181,74.171,104.181,83.855z M100.776,83.855c0-7.811-6.32-14.131-14.131-14.131
			s-14.131,6.32-14.131,14.131s6.32,14.131,14.131,14.131S100.776,91.666,100.776,83.855z M92.546,92.92l-5.731-5.73l-5.731,5.732
			l-3.078-3.081l5.729-5.731l-5.73-5.73l3.08-3.079l5.73,5.729l5.729-5.729l3.082,3.079l-5.73,5.73l5.73,5.73L92.546,92.92z"/>
	</g>
</g>
<g>
	<circle fill="#FFFFFF" cx="133.885" cy="84.051" r="14.713"/>
	<g>
		<path id="check-mark-4-icon_21_" fill="#002035" d="M151.854,84.051c0,9.577-7.764,17.341-17.341,17.341
			s-17.341-7.764-17.341-17.341s7.764-17.341,17.341-17.341S151.854,74.474,151.854,84.051z M148.487,84.051
			c0-7.724-6.251-13.974-13.974-13.974c-7.724,0-13.974,6.251-13.974,13.974c0,7.724,6.251,13.974,13.974,13.974
			C142.237,98.024,148.487,91.773,148.487,84.051z M141.434,76.612l-9.773,9.774l-4.234-4.234l-3.14,3.14l7.374,7.375l12.915-12.916
			L141.434,76.612z"/>
	</g>
</g>
<g>
	<path id="x-mark-4-icon_61_" fill="#002035" d="M197.28,139.639c-6.849,6.848-17.951,6.849-24.801,0
		c-6.849-6.85-6.848-17.952,0-24.801c6.849-6.848,17.951-6.848,24.801,0C204.129,121.688,204.128,132.79,197.28,139.639z
		 M194.872,137.23c5.522-5.523,5.522-14.461,0-19.984c-5.523-5.522-14.461-5.522-19.984,0c-5.522,5.523-5.522,14.461,0,19.984
		C180.411,142.753,189.349,142.753,194.872,137.23z M174.536,129.717l0.002-4.355l20.562-0.002l0.002,4.356L174.536,129.717z"/>
</g>
<g>
	<circle fill="#E6E6E6" cx="38.777" cy="83.856" r="15.087"/>
	<g>
		<path id="x-mark-4-icon_62_" fill="#002035" d="M38.776,66.319c9.686,0,17.537,7.85,17.537,17.535
			c-0.001,9.686-7.852,17.537-17.537,17.537c-9.684,0-17.535-7.852-17.535-17.537S29.093,66.319,38.776,66.319z M38.777,69.724
			c-7.811,0-14.131,6.32-14.131,14.131s6.32,14.131,14.131,14.131s14.131-6.32,14.131-14.131S46.588,69.724,38.777,69.724z
			 M47.842,77.954L33.301,92.495l-3.079-3.08l14.54-14.541L47.842,77.954z"/>
	</g>
</g>
<path id="arrow-40-icon_9_" fill="#002035" d="M127.249,173.963l13.835-9.562v19.127L127.249,173.963z M136.708,188.32
	c-7.888,0-14.271-6.382-14.271-14.271c0-7.887,6.383-14.271,14.271-14.271c7.888,0,14.271,6.382,14.271,14.271
	C150.98,181.937,144.597,188.32,136.708,188.32z M136.708,191.76c9.781,0,17.71-7.929,17.71-17.71s-7.929-17.71-17.71-17.71
	s-17.71,7.929-17.71,17.71S126.927,191.76,136.708,191.76z"/>
<path id="arrow-40-icon_18_" fill="#002035" d="M194.341,174.137l-13.834,9.562v-19.127L194.341,174.137z M184.882,159.779
	c7.888,0,14.271,6.382,14.271,14.271c0,7.887-6.383,14.271-14.271,14.271s-14.271-6.382-14.271-14.271
	C170.61,166.163,176.993,159.779,184.882,159.779z M184.882,156.34c-9.781,0-17.71,7.929-17.711,17.71
	c0,9.781,7.93,17.71,17.711,17.71s17.709-7.929,17.709-17.71C202.592,164.269,194.663,156.34,184.882,156.34z"/>
<path id="arrow-40-icon_2_" fill="#FFFFFF" d="M225.045,173.963l13.834-9.562v19.127L225.045,173.963z M234.504,188.32
	c-7.887,0-14.271-6.382-14.271-14.271c0-7.887,6.383-14.271,14.271-14.271s14.271,6.382,14.271,14.271
	C248.775,181.937,242.393,188.32,234.504,188.32z M234.504,191.76c9.781,0,17.711-7.929,17.711-17.71s-7.93-17.71-17.711-17.71
	s-17.709,7.929-17.709,17.71S224.723,191.76,234.504,191.76z"/>
<path id="arrow-40-icon_1_" fill="#FFFFFF" d="M292.137,174.137l-13.834,9.562v-19.127L292.137,174.137z M282.678,159.779
	c7.888,0,14.271,6.382,14.271,14.271c0,7.887-6.383,14.271-14.271,14.271s-14.271-6.382-14.271-14.271
	C268.406,166.163,274.789,159.779,282.678,159.779z M282.678,156.34c-9.781,0-17.71,7.929-17.711,17.71
	c0,9.781,7.93,17.71,17.711,17.71s17.709-7.929,17.709-17.71C300.388,164.269,292.459,156.34,282.678,156.34z"/>
</svg>
